<mxfile host="app.diagrams.net" modified="2024-07-16T10:27:57.312Z" agent="Mozilla/5.0 (Windows NT 10.0; Win64; x64) AppleWebKit/537.36 (KHTML, like Gecko) Chrome/126.0.0.0 Safari/537.36" etag="TzJiyixIti6qXOG9mzGl" version="24.6.5" type="onedrive">
  <diagram name="Pagina-1" id="-5PvlyXRzh-1tAA1WLCH">
    <mxGraphModel grid="0" page="1" gridSize="10" guides="1" tooltips="1" connect="1" arrows="1" fold="1" pageScale="1" pageWidth="827" pageHeight="1169" math="0" shadow="0">
      <root>
        <mxCell id="0" />
        <mxCell id="1" parent="0" />
        <mxCell id="9bwl6zKxoCdN_GNoM8gN-1" value="" style="shape=table;startSize=0;container=1;collapsible=0;childLayout=tableLayout;" vertex="1" parent="1">
          <mxGeometry x="260" y="50" width="240" height="510" as="geometry" />
        </mxCell>
        <mxCell id="9bwl6zKxoCdN_GNoM8gN-2" value="" style="shape=tableRow;horizontal=0;startSize=0;swimlaneHead=0;swimlaneBody=0;strokeColor=inherit;top=0;left=0;bottom=0;right=0;collapsible=0;dropTarget=0;fillColor=none;points=[[0,0.5],[1,0.5]];portConstraint=eastwest;" vertex="1" parent="9bwl6zKxoCdN_GNoM8gN-1">
          <mxGeometry width="240" height="47" as="geometry" />
        </mxCell>
        <mxCell id="9bwl6zKxoCdN_GNoM8gN-3" value="" style="shape=partialRectangle;html=1;whiteSpace=wrap;connectable=0;strokeColor=inherit;overflow=hidden;fillColor=none;top=0;left=0;bottom=0;right=0;pointerEvents=1;" vertex="1" parent="9bwl6zKxoCdN_GNoM8gN-2">
          <mxGeometry width="48" height="47" as="geometry">
            <mxRectangle width="48" height="47" as="alternateBounds" />
          </mxGeometry>
        </mxCell>
        <mxCell id="9bwl6zKxoCdN_GNoM8gN-4" value="" style="shape=partialRectangle;html=1;whiteSpace=wrap;connectable=0;strokeColor=inherit;overflow=hidden;fillColor=none;top=0;left=0;bottom=0;right=0;pointerEvents=1;" vertex="1" parent="9bwl6zKxoCdN_GNoM8gN-2">
          <mxGeometry x="48" width="48" height="47" as="geometry">
            <mxRectangle width="48" height="47" as="alternateBounds" />
          </mxGeometry>
        </mxCell>
        <mxCell id="9bwl6zKxoCdN_GNoM8gN-5" value="" style="shape=partialRectangle;html=1;whiteSpace=wrap;connectable=0;strokeColor=inherit;overflow=hidden;fillColor=#00CC00;top=0;left=0;bottom=0;right=0;pointerEvents=1;" vertex="1" parent="9bwl6zKxoCdN_GNoM8gN-2">
          <mxGeometry x="96" width="48" height="47" as="geometry">
            <mxRectangle width="48" height="47" as="alternateBounds" />
          </mxGeometry>
        </mxCell>
        <mxCell id="9bwl6zKxoCdN_GNoM8gN-6" value="" style="shape=partialRectangle;html=1;whiteSpace=wrap;connectable=0;strokeColor=inherit;overflow=hidden;fillColor=none;top=0;left=0;bottom=0;right=0;pointerEvents=1;" vertex="1" parent="9bwl6zKxoCdN_GNoM8gN-2">
          <mxGeometry x="144" width="48" height="47" as="geometry">
            <mxRectangle width="48" height="47" as="alternateBounds" />
          </mxGeometry>
        </mxCell>
        <mxCell id="9bwl6zKxoCdN_GNoM8gN-7" value="" style="shape=partialRectangle;html=1;whiteSpace=wrap;connectable=0;strokeColor=inherit;overflow=hidden;fillColor=none;top=0;left=0;bottom=0;right=0;pointerEvents=1;" vertex="1" parent="9bwl6zKxoCdN_GNoM8gN-2">
          <mxGeometry x="192" width="48" height="47" as="geometry">
            <mxRectangle width="48" height="47" as="alternateBounds" />
          </mxGeometry>
        </mxCell>
        <mxCell id="9bwl6zKxoCdN_GNoM8gN-8" value="" style="shape=tableRow;horizontal=0;startSize=0;swimlaneHead=0;swimlaneBody=0;strokeColor=inherit;top=0;left=0;bottom=0;right=0;collapsible=0;dropTarget=0;fillColor=none;points=[[0,0.5],[1,0.5]];portConstraint=eastwest;" vertex="1" parent="9bwl6zKxoCdN_GNoM8gN-1">
          <mxGeometry y="47" width="240" height="46" as="geometry" />
        </mxCell>
        <mxCell id="9bwl6zKxoCdN_GNoM8gN-9" value="" style="shape=partialRectangle;html=1;whiteSpace=wrap;connectable=0;strokeColor=inherit;overflow=hidden;fillColor=none;top=0;left=0;bottom=0;right=0;pointerEvents=1;" vertex="1" parent="9bwl6zKxoCdN_GNoM8gN-8">
          <mxGeometry width="48" height="46" as="geometry">
            <mxRectangle width="48" height="46" as="alternateBounds" />
          </mxGeometry>
        </mxCell>
        <mxCell id="9bwl6zKxoCdN_GNoM8gN-10" value="" style="shape=partialRectangle;html=1;whiteSpace=wrap;connectable=0;strokeColor=inherit;overflow=hidden;fillColor=none;top=0;left=0;bottom=0;right=0;pointerEvents=1;" vertex="1" parent="9bwl6zKxoCdN_GNoM8gN-8">
          <mxGeometry x="48" width="48" height="46" as="geometry">
            <mxRectangle width="48" height="46" as="alternateBounds" />
          </mxGeometry>
        </mxCell>
        <mxCell id="9bwl6zKxoCdN_GNoM8gN-11" value="" style="shape=partialRectangle;html=1;whiteSpace=wrap;connectable=0;strokeColor=inherit;overflow=hidden;fillColor=none;top=0;left=0;bottom=0;right=0;pointerEvents=1;" vertex="1" parent="9bwl6zKxoCdN_GNoM8gN-8">
          <mxGeometry x="96" width="48" height="46" as="geometry">
            <mxRectangle width="48" height="46" as="alternateBounds" />
          </mxGeometry>
        </mxCell>
        <mxCell id="9bwl6zKxoCdN_GNoM8gN-12" value="" style="shape=partialRectangle;html=1;whiteSpace=wrap;connectable=0;strokeColor=inherit;overflow=hidden;fillColor=none;top=0;left=0;bottom=0;right=0;pointerEvents=1;" vertex="1" parent="9bwl6zKxoCdN_GNoM8gN-8">
          <mxGeometry x="144" width="48" height="46" as="geometry">
            <mxRectangle width="48" height="46" as="alternateBounds" />
          </mxGeometry>
        </mxCell>
        <mxCell id="9bwl6zKxoCdN_GNoM8gN-13" value="" style="shape=partialRectangle;html=1;whiteSpace=wrap;connectable=0;strokeColor=inherit;overflow=hidden;fillColor=none;top=0;left=0;bottom=0;right=0;pointerEvents=1;" vertex="1" parent="9bwl6zKxoCdN_GNoM8gN-8">
          <mxGeometry x="192" width="48" height="46" as="geometry">
            <mxRectangle width="48" height="46" as="alternateBounds" />
          </mxGeometry>
        </mxCell>
        <mxCell id="9bwl6zKxoCdN_GNoM8gN-14" value="" style="shape=tableRow;horizontal=0;startSize=0;swimlaneHead=0;swimlaneBody=0;strokeColor=inherit;top=0;left=0;bottom=0;right=0;collapsible=0;dropTarget=0;fillColor=none;points=[[0,0.5],[1,0.5]];portConstraint=eastwest;" vertex="1" parent="9bwl6zKxoCdN_GNoM8gN-1">
          <mxGeometry y="93" width="240" height="46" as="geometry" />
        </mxCell>
        <mxCell id="9bwl6zKxoCdN_GNoM8gN-15" value="" style="shape=partialRectangle;html=1;whiteSpace=wrap;connectable=0;strokeColor=inherit;overflow=hidden;fillColor=none;top=0;left=0;bottom=0;right=0;pointerEvents=1;" vertex="1" parent="9bwl6zKxoCdN_GNoM8gN-14">
          <mxGeometry width="48" height="46" as="geometry">
            <mxRectangle width="48" height="46" as="alternateBounds" />
          </mxGeometry>
        </mxCell>
        <mxCell id="9bwl6zKxoCdN_GNoM8gN-16" value="" style="shape=partialRectangle;html=1;whiteSpace=wrap;connectable=0;strokeColor=inherit;overflow=hidden;fillColor=none;top=0;left=0;bottom=0;right=0;pointerEvents=1;" vertex="1" parent="9bwl6zKxoCdN_GNoM8gN-14">
          <mxGeometry x="48" width="48" height="46" as="geometry">
            <mxRectangle width="48" height="46" as="alternateBounds" />
          </mxGeometry>
        </mxCell>
        <mxCell id="9bwl6zKxoCdN_GNoM8gN-17" value="" style="shape=partialRectangle;html=1;whiteSpace=wrap;connectable=0;strokeColor=inherit;overflow=hidden;fillColor=none;top=0;left=0;bottom=0;right=0;pointerEvents=1;" vertex="1" parent="9bwl6zKxoCdN_GNoM8gN-14">
          <mxGeometry x="96" width="48" height="46" as="geometry">
            <mxRectangle width="48" height="46" as="alternateBounds" />
          </mxGeometry>
        </mxCell>
        <mxCell id="9bwl6zKxoCdN_GNoM8gN-18" value="" style="shape=partialRectangle;html=1;whiteSpace=wrap;connectable=0;strokeColor=inherit;overflow=hidden;fillColor=none;top=0;left=0;bottom=0;right=0;pointerEvents=1;" vertex="1" parent="9bwl6zKxoCdN_GNoM8gN-14">
          <mxGeometry x="144" width="48" height="46" as="geometry">
            <mxRectangle width="48" height="46" as="alternateBounds" />
          </mxGeometry>
        </mxCell>
        <mxCell id="9bwl6zKxoCdN_GNoM8gN-19" value="" style="shape=partialRectangle;html=1;whiteSpace=wrap;connectable=0;strokeColor=inherit;overflow=hidden;fillColor=none;top=0;left=0;bottom=0;right=0;pointerEvents=1;" vertex="1" parent="9bwl6zKxoCdN_GNoM8gN-14">
          <mxGeometry x="192" width="48" height="46" as="geometry">
            <mxRectangle width="48" height="46" as="alternateBounds" />
          </mxGeometry>
        </mxCell>
        <mxCell id="9bwl6zKxoCdN_GNoM8gN-20" value="" style="shape=tableRow;horizontal=0;startSize=0;swimlaneHead=0;swimlaneBody=0;strokeColor=inherit;top=0;left=0;bottom=0;right=0;collapsible=0;dropTarget=0;fillColor=none;points=[[0,0.5],[1,0.5]];portConstraint=eastwest;" vertex="1" parent="9bwl6zKxoCdN_GNoM8gN-1">
          <mxGeometry y="139" width="240" height="46" as="geometry" />
        </mxCell>
        <mxCell id="9bwl6zKxoCdN_GNoM8gN-21" value="" style="shape=partialRectangle;html=1;whiteSpace=wrap;connectable=0;strokeColor=inherit;overflow=hidden;fillColor=#FF0000;top=0;left=0;bottom=0;right=0;pointerEvents=1;" vertex="1" parent="9bwl6zKxoCdN_GNoM8gN-20">
          <mxGeometry width="48" height="46" as="geometry">
            <mxRectangle width="48" height="46" as="alternateBounds" />
          </mxGeometry>
        </mxCell>
        <mxCell id="9bwl6zKxoCdN_GNoM8gN-22" value="" style="shape=partialRectangle;html=1;whiteSpace=wrap;connectable=0;strokeColor=inherit;overflow=hidden;fillColor=#FF0000;top=0;left=0;bottom=0;right=0;pointerEvents=1;" vertex="1" parent="9bwl6zKxoCdN_GNoM8gN-20">
          <mxGeometry x="48" width="48" height="46" as="geometry">
            <mxRectangle width="48" height="46" as="alternateBounds" />
          </mxGeometry>
        </mxCell>
        <mxCell id="9bwl6zKxoCdN_GNoM8gN-23" value="" style="shape=partialRectangle;html=1;whiteSpace=wrap;connectable=0;strokeColor=inherit;overflow=hidden;fillColor=none;top=0;left=0;bottom=0;right=0;pointerEvents=1;" vertex="1" parent="9bwl6zKxoCdN_GNoM8gN-20">
          <mxGeometry x="96" width="48" height="46" as="geometry">
            <mxRectangle width="48" height="46" as="alternateBounds" />
          </mxGeometry>
        </mxCell>
        <mxCell id="9bwl6zKxoCdN_GNoM8gN-24" value="" style="shape=partialRectangle;html=1;whiteSpace=wrap;connectable=0;strokeColor=inherit;overflow=hidden;fillColor=none;top=0;left=0;bottom=0;right=0;pointerEvents=1;" vertex="1" parent="9bwl6zKxoCdN_GNoM8gN-20">
          <mxGeometry x="144" width="48" height="46" as="geometry">
            <mxRectangle width="48" height="46" as="alternateBounds" />
          </mxGeometry>
        </mxCell>
        <mxCell id="9bwl6zKxoCdN_GNoM8gN-25" value="" style="shape=partialRectangle;html=1;whiteSpace=wrap;connectable=0;strokeColor=inherit;overflow=hidden;fillColor=#00CC00;top=0;left=0;bottom=0;right=0;pointerEvents=1;" vertex="1" parent="9bwl6zKxoCdN_GNoM8gN-20">
          <mxGeometry x="192" width="48" height="46" as="geometry">
            <mxRectangle width="48" height="46" as="alternateBounds" />
          </mxGeometry>
        </mxCell>
        <mxCell id="9bwl6zKxoCdN_GNoM8gN-26" value="" style="shape=tableRow;horizontal=0;startSize=0;swimlaneHead=0;swimlaneBody=0;strokeColor=inherit;top=0;left=0;bottom=0;right=0;collapsible=0;dropTarget=0;fillColor=none;points=[[0,0.5],[1,0.5]];portConstraint=eastwest;" vertex="1" parent="9bwl6zKxoCdN_GNoM8gN-1">
          <mxGeometry y="185" width="240" height="47" as="geometry" />
        </mxCell>
        <mxCell id="9bwl6zKxoCdN_GNoM8gN-27" value="" style="shape=partialRectangle;html=1;whiteSpace=wrap;connectable=0;strokeColor=inherit;overflow=hidden;fillColor=#FF0000;top=0;left=0;bottom=0;right=0;pointerEvents=1;" vertex="1" parent="9bwl6zKxoCdN_GNoM8gN-26">
          <mxGeometry width="48" height="47" as="geometry">
            <mxRectangle width="48" height="47" as="alternateBounds" />
          </mxGeometry>
        </mxCell>
        <mxCell id="9bwl6zKxoCdN_GNoM8gN-28" value="" style="shape=partialRectangle;html=1;whiteSpace=wrap;connectable=0;strokeColor=inherit;overflow=hidden;fillColor=#FF0000;top=0;left=0;bottom=0;right=0;pointerEvents=1;" vertex="1" parent="9bwl6zKxoCdN_GNoM8gN-26">
          <mxGeometry x="48" width="48" height="47" as="geometry">
            <mxRectangle width="48" height="47" as="alternateBounds" />
          </mxGeometry>
        </mxCell>
        <mxCell id="9bwl6zKxoCdN_GNoM8gN-29" value="" style="shape=partialRectangle;html=1;whiteSpace=wrap;connectable=0;strokeColor=inherit;overflow=hidden;fillColor=none;top=0;left=0;bottom=0;right=0;pointerEvents=1;" vertex="1" parent="9bwl6zKxoCdN_GNoM8gN-26">
          <mxGeometry x="96" width="48" height="47" as="geometry">
            <mxRectangle width="48" height="47" as="alternateBounds" />
          </mxGeometry>
        </mxCell>
        <mxCell id="9bwl6zKxoCdN_GNoM8gN-30" value="" style="shape=partialRectangle;html=1;whiteSpace=wrap;connectable=0;strokeColor=inherit;overflow=hidden;fillColor=none;top=0;left=0;bottom=0;right=0;pointerEvents=1;" vertex="1" parent="9bwl6zKxoCdN_GNoM8gN-26">
          <mxGeometry x="144" width="48" height="47" as="geometry">
            <mxRectangle width="48" height="47" as="alternateBounds" />
          </mxGeometry>
        </mxCell>
        <mxCell id="9bwl6zKxoCdN_GNoM8gN-31" value="" style="shape=partialRectangle;html=1;whiteSpace=wrap;connectable=0;strokeColor=inherit;overflow=hidden;fillColor=none;top=0;left=0;bottom=0;right=0;pointerEvents=1;" vertex="1" parent="9bwl6zKxoCdN_GNoM8gN-26">
          <mxGeometry x="192" width="48" height="47" as="geometry">
            <mxRectangle width="48" height="47" as="alternateBounds" />
          </mxGeometry>
        </mxCell>
        <mxCell id="9bwl6zKxoCdN_GNoM8gN-32" value="" style="shape=tableRow;horizontal=0;startSize=0;swimlaneHead=0;swimlaneBody=0;strokeColor=inherit;top=0;left=0;bottom=0;right=0;collapsible=0;dropTarget=0;fillColor=none;points=[[0,0.5],[1,0.5]];portConstraint=eastwest;" vertex="1" parent="9bwl6zKxoCdN_GNoM8gN-1">
          <mxGeometry y="232" width="240" height="46" as="geometry" />
        </mxCell>
        <mxCell id="9bwl6zKxoCdN_GNoM8gN-33" value="" style="shape=partialRectangle;html=1;whiteSpace=wrap;connectable=0;strokeColor=inherit;overflow=hidden;fillColor=none;top=0;left=0;bottom=0;right=0;pointerEvents=1;" vertex="1" parent="9bwl6zKxoCdN_GNoM8gN-32">
          <mxGeometry width="48" height="46" as="geometry">
            <mxRectangle width="48" height="46" as="alternateBounds" />
          </mxGeometry>
        </mxCell>
        <mxCell id="9bwl6zKxoCdN_GNoM8gN-34" value="" style="shape=partialRectangle;html=1;whiteSpace=wrap;connectable=0;strokeColor=inherit;overflow=hidden;fillColor=none;top=0;left=0;bottom=0;right=0;pointerEvents=1;" vertex="1" parent="9bwl6zKxoCdN_GNoM8gN-32">
          <mxGeometry x="48" width="48" height="46" as="geometry">
            <mxRectangle width="48" height="46" as="alternateBounds" />
          </mxGeometry>
        </mxCell>
        <mxCell id="9bwl6zKxoCdN_GNoM8gN-35" value="" style="shape=partialRectangle;html=1;whiteSpace=wrap;connectable=0;strokeColor=inherit;overflow=hidden;fillColor=none;top=0;left=0;bottom=0;right=0;pointerEvents=1;" vertex="1" parent="9bwl6zKxoCdN_GNoM8gN-32">
          <mxGeometry x="96" width="48" height="46" as="geometry">
            <mxRectangle width="48" height="46" as="alternateBounds" />
          </mxGeometry>
        </mxCell>
        <mxCell id="9bwl6zKxoCdN_GNoM8gN-36" value="" style="shape=partialRectangle;html=1;whiteSpace=wrap;connectable=0;strokeColor=inherit;overflow=hidden;fillColor=none;top=0;left=0;bottom=0;right=0;pointerEvents=1;" vertex="1" parent="9bwl6zKxoCdN_GNoM8gN-32">
          <mxGeometry x="144" width="48" height="46" as="geometry">
            <mxRectangle width="48" height="46" as="alternateBounds" />
          </mxGeometry>
        </mxCell>
        <mxCell id="9bwl6zKxoCdN_GNoM8gN-37" value="" style="shape=partialRectangle;html=1;whiteSpace=wrap;connectable=0;strokeColor=inherit;overflow=hidden;fillColor=none;top=0;left=0;bottom=0;right=0;pointerEvents=1;" vertex="1" parent="9bwl6zKxoCdN_GNoM8gN-32">
          <mxGeometry x="192" width="48" height="46" as="geometry">
            <mxRectangle width="48" height="46" as="alternateBounds" />
          </mxGeometry>
        </mxCell>
        <mxCell id="9bwl6zKxoCdN_GNoM8gN-38" value="" style="shape=tableRow;horizontal=0;startSize=0;swimlaneHead=0;swimlaneBody=0;strokeColor=inherit;top=0;left=0;bottom=0;right=0;collapsible=0;dropTarget=0;fillColor=none;points=[[0,0.5],[1,0.5]];portConstraint=eastwest;" vertex="1" parent="9bwl6zKxoCdN_GNoM8gN-1">
          <mxGeometry y="278" width="240" height="47" as="geometry" />
        </mxCell>
        <mxCell id="9bwl6zKxoCdN_GNoM8gN-39" value="" style="shape=partialRectangle;html=1;whiteSpace=wrap;connectable=0;strokeColor=inherit;overflow=hidden;fillColor=none;top=0;left=0;bottom=0;right=0;pointerEvents=1;" vertex="1" parent="9bwl6zKxoCdN_GNoM8gN-38">
          <mxGeometry width="48" height="47" as="geometry">
            <mxRectangle width="48" height="47" as="alternateBounds" />
          </mxGeometry>
        </mxCell>
        <mxCell id="9bwl6zKxoCdN_GNoM8gN-40" value="" style="shape=partialRectangle;html=1;whiteSpace=wrap;connectable=0;strokeColor=inherit;overflow=hidden;fillColor=none;top=0;left=0;bottom=0;right=0;pointerEvents=1;" vertex="1" parent="9bwl6zKxoCdN_GNoM8gN-38">
          <mxGeometry x="48" width="48" height="47" as="geometry">
            <mxRectangle width="48" height="47" as="alternateBounds" />
          </mxGeometry>
        </mxCell>
        <mxCell id="9bwl6zKxoCdN_GNoM8gN-41" value="" style="shape=partialRectangle;html=1;whiteSpace=wrap;connectable=0;strokeColor=inherit;overflow=hidden;fillColor=none;top=0;left=0;bottom=0;right=0;pointerEvents=1;" vertex="1" parent="9bwl6zKxoCdN_GNoM8gN-38">
          <mxGeometry x="96" width="48" height="47" as="geometry">
            <mxRectangle width="48" height="47" as="alternateBounds" />
          </mxGeometry>
        </mxCell>
        <mxCell id="9bwl6zKxoCdN_GNoM8gN-42" value="" style="shape=partialRectangle;html=1;whiteSpace=wrap;connectable=0;strokeColor=inherit;overflow=hidden;fillColor=none;top=0;left=0;bottom=0;right=0;pointerEvents=1;" vertex="1" parent="9bwl6zKxoCdN_GNoM8gN-38">
          <mxGeometry x="144" width="48" height="47" as="geometry">
            <mxRectangle width="48" height="47" as="alternateBounds" />
          </mxGeometry>
        </mxCell>
        <mxCell id="9bwl6zKxoCdN_GNoM8gN-43" value="" style="shape=partialRectangle;html=1;whiteSpace=wrap;connectable=0;strokeColor=inherit;overflow=hidden;fillColor=none;top=0;left=0;bottom=0;right=0;pointerEvents=1;" vertex="1" parent="9bwl6zKxoCdN_GNoM8gN-38">
          <mxGeometry x="192" width="48" height="47" as="geometry">
            <mxRectangle width="48" height="47" as="alternateBounds" />
          </mxGeometry>
        </mxCell>
        <mxCell id="9bwl6zKxoCdN_GNoM8gN-44" value="" style="shape=tableRow;horizontal=0;startSize=0;swimlaneHead=0;swimlaneBody=0;strokeColor=inherit;top=0;left=0;bottom=0;right=0;collapsible=0;dropTarget=0;fillColor=none;points=[[0,0.5],[1,0.5]];portConstraint=eastwest;" vertex="1" parent="9bwl6zKxoCdN_GNoM8gN-1">
          <mxGeometry y="325" width="240" height="46" as="geometry" />
        </mxCell>
        <mxCell id="9bwl6zKxoCdN_GNoM8gN-45" value="" style="shape=partialRectangle;html=1;whiteSpace=wrap;connectable=0;strokeColor=inherit;overflow=hidden;fillColor=none;top=0;left=0;bottom=0;right=0;pointerEvents=1;" vertex="1" parent="9bwl6zKxoCdN_GNoM8gN-44">
          <mxGeometry width="48" height="46" as="geometry">
            <mxRectangle width="48" height="46" as="alternateBounds" />
          </mxGeometry>
        </mxCell>
        <mxCell id="9bwl6zKxoCdN_GNoM8gN-46" value="" style="shape=partialRectangle;html=1;whiteSpace=wrap;connectable=0;strokeColor=inherit;overflow=hidden;fillColor=none;top=0;left=0;bottom=0;right=0;pointerEvents=1;" vertex="1" parent="9bwl6zKxoCdN_GNoM8gN-44">
          <mxGeometry x="48" width="48" height="46" as="geometry">
            <mxRectangle width="48" height="46" as="alternateBounds" />
          </mxGeometry>
        </mxCell>
        <mxCell id="9bwl6zKxoCdN_GNoM8gN-47" value="" style="shape=partialRectangle;html=1;whiteSpace=wrap;connectable=0;strokeColor=inherit;overflow=hidden;fillColor=none;top=0;left=0;bottom=0;right=0;pointerEvents=1;" vertex="1" parent="9bwl6zKxoCdN_GNoM8gN-44">
          <mxGeometry x="96" width="48" height="46" as="geometry">
            <mxRectangle width="48" height="46" as="alternateBounds" />
          </mxGeometry>
        </mxCell>
        <mxCell id="9bwl6zKxoCdN_GNoM8gN-48" value="" style="shape=partialRectangle;html=1;whiteSpace=wrap;connectable=0;strokeColor=inherit;overflow=hidden;fillColor=none;top=0;left=0;bottom=0;right=0;pointerEvents=1;" vertex="1" parent="9bwl6zKxoCdN_GNoM8gN-44">
          <mxGeometry x="144" width="48" height="46" as="geometry">
            <mxRectangle width="48" height="46" as="alternateBounds" />
          </mxGeometry>
        </mxCell>
        <mxCell id="9bwl6zKxoCdN_GNoM8gN-49" value="" style="shape=partialRectangle;html=1;whiteSpace=wrap;connectable=0;strokeColor=inherit;overflow=hidden;fillColor=#00CC00;top=0;left=0;bottom=0;right=0;pointerEvents=1;" vertex="1" parent="9bwl6zKxoCdN_GNoM8gN-44">
          <mxGeometry x="192" width="48" height="46" as="geometry">
            <mxRectangle width="48" height="46" as="alternateBounds" />
          </mxGeometry>
        </mxCell>
        <mxCell id="9bwl6zKxoCdN_GNoM8gN-50" value="" style="shape=tableRow;horizontal=0;startSize=0;swimlaneHead=0;swimlaneBody=0;strokeColor=inherit;top=0;left=0;bottom=0;right=0;collapsible=0;dropTarget=0;fillColor=none;points=[[0,0.5],[1,0.5]];portConstraint=eastwest;" vertex="1" parent="9bwl6zKxoCdN_GNoM8gN-1">
          <mxGeometry y="371" width="240" height="46" as="geometry" />
        </mxCell>
        <mxCell id="9bwl6zKxoCdN_GNoM8gN-51" value="" style="shape=partialRectangle;html=1;whiteSpace=wrap;connectable=0;strokeColor=inherit;overflow=hidden;fillColor=none;top=0;left=0;bottom=0;right=0;pointerEvents=1;" vertex="1" parent="9bwl6zKxoCdN_GNoM8gN-50">
          <mxGeometry width="48" height="46" as="geometry">
            <mxRectangle width="48" height="46" as="alternateBounds" />
          </mxGeometry>
        </mxCell>
        <mxCell id="9bwl6zKxoCdN_GNoM8gN-52" value="" style="shape=partialRectangle;html=1;whiteSpace=wrap;connectable=0;strokeColor=inherit;overflow=hidden;fillColor=#FF0000;top=0;left=0;bottom=0;right=0;pointerEvents=1;" vertex="1" parent="9bwl6zKxoCdN_GNoM8gN-50">
          <mxGeometry x="48" width="48" height="46" as="geometry">
            <mxRectangle width="48" height="46" as="alternateBounds" />
          </mxGeometry>
        </mxCell>
        <mxCell id="9bwl6zKxoCdN_GNoM8gN-53" value="" style="shape=partialRectangle;html=1;whiteSpace=wrap;connectable=0;strokeColor=inherit;overflow=hidden;fillColor=none;top=0;left=0;bottom=0;right=0;pointerEvents=1;" vertex="1" parent="9bwl6zKxoCdN_GNoM8gN-50">
          <mxGeometry x="96" width="48" height="46" as="geometry">
            <mxRectangle width="48" height="46" as="alternateBounds" />
          </mxGeometry>
        </mxCell>
        <mxCell id="9bwl6zKxoCdN_GNoM8gN-54" value="" style="shape=partialRectangle;html=1;whiteSpace=wrap;connectable=0;strokeColor=inherit;overflow=hidden;fillColor=none;top=0;left=0;bottom=0;right=0;pointerEvents=1;" vertex="1" parent="9bwl6zKxoCdN_GNoM8gN-50">
          <mxGeometry x="144" width="48" height="46" as="geometry">
            <mxRectangle width="48" height="46" as="alternateBounds" />
          </mxGeometry>
        </mxCell>
        <mxCell id="9bwl6zKxoCdN_GNoM8gN-55" value="" style="shape=partialRectangle;html=1;whiteSpace=wrap;connectable=0;strokeColor=inherit;overflow=hidden;fillColor=none;top=0;left=0;bottom=0;right=0;pointerEvents=1;" vertex="1" parent="9bwl6zKxoCdN_GNoM8gN-50">
          <mxGeometry x="192" width="48" height="46" as="geometry">
            <mxRectangle width="48" height="46" as="alternateBounds" />
          </mxGeometry>
        </mxCell>
        <mxCell id="9bwl6zKxoCdN_GNoM8gN-56" value="" style="shape=tableRow;horizontal=0;startSize=0;swimlaneHead=0;swimlaneBody=0;strokeColor=inherit;top=0;left=0;bottom=0;right=0;collapsible=0;dropTarget=0;fillColor=none;points=[[0,0.5],[1,0.5]];portConstraint=eastwest;" vertex="1" parent="9bwl6zKxoCdN_GNoM8gN-1">
          <mxGeometry y="417" width="240" height="47" as="geometry" />
        </mxCell>
        <mxCell id="9bwl6zKxoCdN_GNoM8gN-57" value="" style="shape=partialRectangle;html=1;whiteSpace=wrap;connectable=0;strokeColor=inherit;overflow=hidden;fillColor=none;top=0;left=0;bottom=0;right=0;pointerEvents=1;" vertex="1" parent="9bwl6zKxoCdN_GNoM8gN-56">
          <mxGeometry width="48" height="47" as="geometry">
            <mxRectangle width="48" height="47" as="alternateBounds" />
          </mxGeometry>
        </mxCell>
        <mxCell id="9bwl6zKxoCdN_GNoM8gN-58" value="" style="shape=partialRectangle;html=1;whiteSpace=wrap;connectable=0;strokeColor=inherit;overflow=hidden;fillColor=none;top=0;left=0;bottom=0;right=0;pointerEvents=1;" vertex="1" parent="9bwl6zKxoCdN_GNoM8gN-56">
          <mxGeometry x="48" width="48" height="47" as="geometry">
            <mxRectangle width="48" height="47" as="alternateBounds" />
          </mxGeometry>
        </mxCell>
        <mxCell id="9bwl6zKxoCdN_GNoM8gN-59" value="" style="shape=partialRectangle;html=1;whiteSpace=wrap;connectable=0;strokeColor=inherit;overflow=hidden;fillColor=none;top=0;left=0;bottom=0;right=0;pointerEvents=1;" vertex="1" parent="9bwl6zKxoCdN_GNoM8gN-56">
          <mxGeometry x="96" width="48" height="47" as="geometry">
            <mxRectangle width="48" height="47" as="alternateBounds" />
          </mxGeometry>
        </mxCell>
        <mxCell id="9bwl6zKxoCdN_GNoM8gN-60" value="" style="shape=partialRectangle;html=1;whiteSpace=wrap;connectable=0;strokeColor=inherit;overflow=hidden;fillColor=none;top=0;left=0;bottom=0;right=0;pointerEvents=1;" vertex="1" parent="9bwl6zKxoCdN_GNoM8gN-56">
          <mxGeometry x="144" width="48" height="47" as="geometry">
            <mxRectangle width="48" height="47" as="alternateBounds" />
          </mxGeometry>
        </mxCell>
        <mxCell id="9bwl6zKxoCdN_GNoM8gN-61" value="" style="shape=partialRectangle;html=1;whiteSpace=wrap;connectable=0;strokeColor=inherit;overflow=hidden;fillColor=none;top=0;left=0;bottom=0;right=0;pointerEvents=1;" vertex="1" parent="9bwl6zKxoCdN_GNoM8gN-56">
          <mxGeometry x="192" width="48" height="47" as="geometry">
            <mxRectangle width="48" height="47" as="alternateBounds" />
          </mxGeometry>
        </mxCell>
        <mxCell id="9bwl6zKxoCdN_GNoM8gN-62" value="" style="shape=tableRow;horizontal=0;startSize=0;swimlaneHead=0;swimlaneBody=0;strokeColor=inherit;top=0;left=0;bottom=0;right=0;collapsible=0;dropTarget=0;fillColor=none;points=[[0,0.5],[1,0.5]];portConstraint=eastwest;" vertex="1" parent="9bwl6zKxoCdN_GNoM8gN-1">
          <mxGeometry y="464" width="240" height="46" as="geometry" />
        </mxCell>
        <mxCell id="9bwl6zKxoCdN_GNoM8gN-63" value="" style="shape=partialRectangle;html=1;whiteSpace=wrap;connectable=0;strokeColor=inherit;overflow=hidden;fillColor=none;top=0;left=0;bottom=0;right=0;pointerEvents=1;" vertex="1" parent="9bwl6zKxoCdN_GNoM8gN-62">
          <mxGeometry width="48" height="46" as="geometry">
            <mxRectangle width="48" height="46" as="alternateBounds" />
          </mxGeometry>
        </mxCell>
        <mxCell id="9bwl6zKxoCdN_GNoM8gN-64" value="" style="shape=partialRectangle;html=1;whiteSpace=wrap;connectable=0;strokeColor=inherit;overflow=hidden;fillColor=none;top=0;left=0;bottom=0;right=0;pointerEvents=1;" vertex="1" parent="9bwl6zKxoCdN_GNoM8gN-62">
          <mxGeometry x="48" width="48" height="46" as="geometry">
            <mxRectangle width="48" height="46" as="alternateBounds" />
          </mxGeometry>
        </mxCell>
        <mxCell id="9bwl6zKxoCdN_GNoM8gN-65" value="" style="shape=partialRectangle;html=1;whiteSpace=wrap;connectable=0;strokeColor=inherit;overflow=hidden;fillColor=#00CC00;top=0;left=0;bottom=0;right=0;pointerEvents=1;" vertex="1" parent="9bwl6zKxoCdN_GNoM8gN-62">
          <mxGeometry x="96" width="48" height="46" as="geometry">
            <mxRectangle width="48" height="46" as="alternateBounds" />
          </mxGeometry>
        </mxCell>
        <mxCell id="9bwl6zKxoCdN_GNoM8gN-66" value="" style="shape=partialRectangle;html=1;whiteSpace=wrap;connectable=0;strokeColor=inherit;overflow=hidden;fillColor=none;top=0;left=0;bottom=0;right=0;pointerEvents=1;" vertex="1" parent="9bwl6zKxoCdN_GNoM8gN-62">
          <mxGeometry x="144" width="48" height="46" as="geometry">
            <mxRectangle width="48" height="46" as="alternateBounds" />
          </mxGeometry>
        </mxCell>
        <mxCell id="9bwl6zKxoCdN_GNoM8gN-67" value="" style="shape=partialRectangle;html=1;whiteSpace=wrap;connectable=0;strokeColor=inherit;overflow=hidden;fillColor=none;top=0;left=0;bottom=0;right=0;pointerEvents=1;" vertex="1" parent="9bwl6zKxoCdN_GNoM8gN-62">
          <mxGeometry x="192" width="48" height="46" as="geometry">
            <mxRectangle width="48" height="46" as="alternateBounds" />
          </mxGeometry>
        </mxCell>
        <mxCell id="9bwl6zKxoCdN_GNoM8gN-74" value="" style="shape=mxgraph.signs.people.man_2;html=1;pointerEvents=1;fillColor=#000000;strokeColor=none;verticalLabelPosition=bottom;verticalAlign=top;align=center;" vertex="1" parent="1">
          <mxGeometry x="362" y="240" width="36" height="40" as="geometry" />
        </mxCell>
        <mxCell id="9bwl6zKxoCdN_GNoM8gN-75" value="" style="shape=mxgraph.signs.people.man_2;html=1;pointerEvents=1;fillColor=#000000;strokeColor=none;verticalLabelPosition=bottom;verticalAlign=top;align=center;" vertex="1" parent="1">
          <mxGeometry x="312" y="378" width="36" height="40" as="geometry" />
        </mxCell>
        <mxCell id="9bwl6zKxoCdN_GNoM8gN-76" value="" style="shape=mxgraph.signs.people.man_2;html=1;pointerEvents=1;fillColor=#000000;strokeColor=none;verticalLabelPosition=bottom;verticalAlign=top;align=center;" vertex="1" parent="1">
          <mxGeometry x="270" y="330" width="36" height="40" as="geometry" />
        </mxCell>
        <mxCell id="9bwl6zKxoCdN_GNoM8gN-77" value="" style="shape=mxgraph.signs.people.man_2;html=1;pointerEvents=1;fillColor=#000000;strokeColor=none;verticalLabelPosition=bottom;verticalAlign=top;align=center;" vertex="1" parent="1">
          <mxGeometry x="312" y="330" width="36" height="40" as="geometry" />
        </mxCell>
        <mxCell id="9bwl6zKxoCdN_GNoM8gN-78" value="" style="shape=mxgraph.signs.people.man_2;html=1;pointerEvents=1;fillColor=#000000;strokeColor=none;verticalLabelPosition=bottom;verticalAlign=top;align=center;" vertex="1" parent="1">
          <mxGeometry x="310" y="146" width="40" height="40" as="geometry" />
        </mxCell>
        <mxCell id="9bwl6zKxoCdN_GNoM8gN-79" value="" style="shape=mxgraph.signs.people.man_2;html=1;pointerEvents=1;fillColor=#000000;strokeColor=none;verticalLabelPosition=bottom;verticalAlign=top;align=center;" vertex="1" parent="1">
          <mxGeometry x="362" y="146" width="36" height="40" as="geometry" />
        </mxCell>
        <mxCell id="9bwl6zKxoCdN_GNoM8gN-82" value="" style="shape=image;verticalLabelPosition=bottom;labelBackgroundColor=default;verticalAlign=top;aspect=fixed;imageAspect=0;image=data:image/png,iVBORw0KGgoAAAANSUhEUgAAAOEAAADhCAMAAAAJbSJIAAAAhFBMVEX///8AAAD+/v79/f0EBAT6+vrt7e329vbn5+fq6uoyMjLKysoICAjy8vLPz8+Xl5fh4eErKyuIiIh1dXU9PT3Y2Nifn59LS0uCgoKysrJtbW1GRka8vLyQkJAPDw8iIiJTU1Nvb2+oqKhiYmIXFxfBwcF8fHw/Pz9eXl61tbUdHR01NTW1BuyAAAAVqklEQVR4nO0diXbius6xYxIIkIR9X0KBtvP///csyQnZm620rxfNmZkWEsuyZVmWZImxF7zgBS94wQte8IIXvOAFL3jBC17wghf8PwP/+xi54M/DyRW2pyGLcP5hhJwg/OkZ2BJYnwZSPBGZkE9AwplaC2oM+04wvR8MhONpspuPYFEyIQQ91R4Pg+ETOGGj+W5yOhKyw30aOH14QKH7hsnkQJ4YrTczIwlvy9vYUqMMoqcTLoJmVGuMWc5q+ZnCNtusR0DfN/CrVM06U8RimoZJP4R4BwtP0diROIBGVFveYhA2H2Iz6Yepo/rSPdsK6ZwifKb++0D/tvKoe60RUQve6k0PZjio9Jd+PTnfIAXsqVEIOKe+C4+1R4wtuL6mxixAObVbIyKAFQ8LWy5iA6oEzGayd9396nKP0zhQ3MOl1DKnCXFcSKmY1BnoFhHulxUgm2xCkUMdWah1IwDa8StXCCUXvXdo1jSHINHcsdfTrcqedz1Hy8U4BFIRyJtTiCTK4BC1ODhf48jG7kx9N4SuGMZFfYHda0Whmj01iWM/xPi5n+OngqPWhq1b1w1+NwTmsaTqY2N0anykNdVtGcbmqoS0GmXU2mBHUr/N95F49ecwi7zlwlAo2e5Ty08/UHufBFQchTrsHyDUhH0eGuZQja0xGwFnN0QGHDeaKVyqKWN4tgWIcNobOG26ilo2CnzkYdP43LG2TAqDypxwna1sBlyE0g53f/oD606MZ/qh5Yg15hvV/9FStzMbkxYR4YFh4yQY+qtQBDlKxjeeQ+ymandHS9DYzksEpRrjhUk71mAk8eBRj0zc5ZVGMSBBYi7K9lbB5lst92AWWy7E+SeN6bkPQ1wEwMzjA/HyuwVrpua+IVCSWu/qfcWhhzG2WIhNTeOZpvFzLlvuwT2fhPONsbJdgAOzeHca2JuglVoLULVd6f3BA+YrmUPoyY1I9HttKFRsfzFQMrug3ZesL9gkOFeLCOc7AGlbcw5BUga4IIxlD3i2RCQrZlID6hJDX9qIGrW4aFBvsPGUyWU4eCip0D8SiT2UuHUApGSPZuXY162VPKzGU4azuKiFKN6MWsI2seimVN/koMVwZoFo8IjEi6y77asWgF/Un6MHLGuhwlImldVXG+qezZupUeo1OcVBmtmsZEZIKfBu22skeVHE1ZSlyVev26kHi7tEXinq7RluZFPZTJ6qd2gnNMalhiDYc+XEgNUHe/0UFZJZAy6d4ZtTbFCtSGMlS5UH4OMx8anT7EyjWqDj0gpYqEzIsPEWlo8HS0fauPUb65o4OVvjezMbpL9Abt+OWZm4gYVAwvdUX3QTjJFtfBvaKtt+Pw7QuRUuXaF6CqtpWVPVEJLk8JoaUV1X5B4+SpUMNe62j5w9roUrakEQw+WLKiCAIytKUqFmFtddPWnOqTOsXK+Ikx4Y5FkTORXxFNqiAmLtZutwhDg/R7nfosYIKzAUaFdtV4BJxOVfk0ISams9aZJdQzGOpzFetL+OPvG9USMupYWxz2cU3LBgBi8whqZ6TC8ZJSfwwDiodwi36aVQtKix26O5BDd0QRtkDnD1GC37JnDBQ22Bvo1GWsYtZMmhOheGSqtiM+ybmtQ6cDVonEJmlJy2KmJczgqkpdLB8bh8qYVMQx/NhveCpnu7IHD0KChpZEWbrnp6jp/damG74ajMQ2ygQ0ifjkiq904Q7Hp5rykZj4aUWb8WNgIHBbGbPcWAIUWb3QZ0YLrHsMMRaAnfvbGKRyhQQhla1pajhK7Wu5NSrM0kJye3L64+KNaHAN8c57QqFnELmNKz7PgjXIt6w2KVKWSWoTecxAv28WH9ggcWGZGpGGeM3wUNKMRlcLRzVuHigRPPL14SKQ2OqQan6pYI3TSpm8lXPJ/GMITMzqU4Rg1D7TVBcIeWT71sNx3FmUNNoHpk6yX2KliOpCoEVTUNDucmvXHHNwU4cm4fFnZ1MjYzzChY7wQUzhpQ+AZtb3LU+xNRFg7umiXPEYqsnqHPlJUpdHFMekkNH7Th9cNyClhP6VfVwWYDr77VIw7XDxIwSS5DOKb2UnbojUicXdDpgF9ManDpBN9A10ecQiE2CVwwCCLRrOreBHvKKq76Rzepl3uWxKka2RlJmPWzpzP8YlUdn9agUx+qXb6f9nTtkoTAj/vw3Tp6DSgrOFVu8jVoPUjhPNpZZynO8q06Rn7DGUr3QoI0TUKQniraLkxD1rN9gXkSG3RTnwuWodD4yJrF8PNb1VHlaFbKzqFq9yONLGCZ1U0bIrlvq4KI1lJKK4W92UkjhcWaR2FrLuV6ecbBYamzqgi5tLYBkxl6m4m3h4rxMOPz+jdGNYuM4eBhMEjJrDasHPVnE+eBxDJHIcPG/5JoQAOGE7dMvKwVvnrEIeAKuCSXmAASfSOD+LCW4aYI3gwbPy81WydIDG16duS9VmjF+pAeSqUAg7kjOYcSdeNjAwpR9dz2EiZlQRbUFFrY/Kb98DkBBwXYwz4qer3hoQ984xpjNPDImilewSFPyVLZAxOKcWpAIa6BoZdY2IJO8GacSJPcGj4d6tGg72LfPF5moos1qp7zkByX6VXG+dinZuOI8NdTwhiuEHioX00aUEj7XvKUx+G4ZKaG1tQk73V/9cnOqBoxgV46g8yCXI/JPhq5JCZwjKYEyhW/2jWgEF0yxjmcQzB5c7khYrbr8z/aqYaxDoB3Cs7ipAtva2Hbkp5PntD5NtYqYTj+O6+3xDIb8G3JsFfsjLaWeQMKwQlhGgNLDxl4fBXnoiA9ekz27bWRHmX/A+eDZt/9ov0kuHom4Ez5EZdlhGJt9yUa1E08ZEWWYsGsAXy4zLcmfQErbWHSFKKhEKcQ7IvgHFllRcHKUthRuNW08NEpDzjQWqXaVEjAOKw6gLZDtMqIiEKyWNXZe9NIz6F1QjLnTU2hYj8bzdKKe/8l1yRQP5gzDy0nS6sWMgt9vwePzQdGRr78A4pgo/LuEKZgfI7DtSPEucFwRkiJWfT5Vg0urhVj0ANXDBpkx4+giQgOATHcvqY1kTQTd53X5BjMXBhXAu5MGOSITT1aHvWGU4PEQxvIGtzopVahbvHG1gUhPeAQqmnz7hc3FTcVWqTBTpBgheKMT7iNgsCEtN+Qc8ZgrhRqy4Ie7ONKDp4+87o1jJi7MjYxTcjlGIWbhAnBosn2MIpBgGfdMN7sRuEKiq6VQQYCPONCmMvsyuKjJYhrcqDIzFoIXBs+s+AnDCkK+xXOjDfq1AxHeFVNtchQqDY24voFGvC3hj+R4AhNPJI9aSAc5zX5RrJ5wWA5CdsNBwV4clQrUaCLGk1hdl2fum4LD5em4p0hItkFHtrWE+gEzx5wcFSOdZWM3TGf4Sc8YSqSGMvmBVfYvZwhCne34iEmA0AKbUCHguhRCFQibSQHNiNkpNSYJKNsBfpdVF9Hm9w2QDPi2YN0GIF6wN75rGlIJLzlUCPqiMF5rkNWrZ+0oYG6ZoCDEz3gJc548M9JptW0vIFS3J7zNkwrF70tDb/TmEIc7IVWRPtwMMtbWqikpTtnIneDAZcCt2Jtpg4/aMVaGMht2VbA8JSDU4Ljsr8lPAtW8ZSW23m1qmH/GaIqWuDgEjytZj1Cei8eLtZCDLjEvEsy6DgGqyKUApVU2F5uUmTZuDp9EE5+J+VXiY58Nywqvzk0UuDwlYUsFLevhIck+Pfq65NStpFI7U+BIgoEE7xzt6ibjeOihI4W1Md48HkJOkjpnoLvkhdtZQD+eq4Hhlujng3QH4Vbjpyvc0YnhMMcRiJka8IqMFKnP9V9gkjIlvGloAsOdHMzsMagTNXuUI7xbAoyFsbHXELM9HTi7qeX9+X2/g/gvl2+X6Z7dzI95UmpCAKMcY7MhGS/AB18PdM9GvTaX2wBCkbvhl4lp7XQFy/oSz2bnlvSz1xdLD4CheB6FBgdsTQaDcT6FHbnfSRahJdqAiHyWtCRDTsz2OMdGR5dkJH29f2thAKTfNUF1Jl58iWCt/erLTUeWsej+X4Q9WVliTZR5SGFsPK4ZkPqzfIWzMnpK+yrO/XLZ6LoK/OL7/VX/tS96mNKbx7clo9uIBPLhiFtaTIhbvCiUZpx/NGPqRsfrUA3NUxZ9GI/wN9L/fjHYkBLtNyFbqAcUxsYhf0vWK46hWgpOUQtJ78imO1keSxaTcBrEMxab7PdCeE8n7893LWtCESH53x+Ln5ku7YwZrezm0GCtBvOpDOldZ7an5eTvhBkYuuCQgO1NdGfLBOfa6SDqSNJUeIN1dEcCtEqQ1LL3q1S2/vdHVsMzRyX1tSFcKEGrbF7T35xWO1skvDAol0ImRQQ41vjwJ2sbrfVfvERv7E2KuHiWrAdxVr1PhZ7QDZxg7H16MQ3Qc5d3Pgwjjvi0nEMW3KannMZ+HFZNLUXiVikTRtYJNdXeP+WP+3OeoQvM52C5R/V68Emvb5iuLpfeOUgksHDFLPbFvxk3HwHt9O6AyD2mvWJVQfcCq8d7gJdAxzfmN9G2sCZGe5U/1oK4bC2bkwewbpTbaxjQMtmrumtOoBx7SkJFBoBOnDlqRWFJzzx/VYuJSi51V4Bpj/d/QqQa+avDE1iKp4N7fSaxlftngj7Vsrp/qe7XwH++jrkLU+Jl+/IPNMpcPbeisL3X08ha70f/jQBX0LLg/62UXDTU6F3/5qMErjnXm/6NQAmuUx0fT2Y9du4yr4dgEK7JYX2b6eQ2/++JqME/tk5kQm/B/4Tc/jH1yHA35alAH9/P/zzOs3f10v//tni758P/wtn/L9vp/n7tra/vA4xIrgDm/cPJO+uChBl14HfoiwZ3c+C0HejWsGalWb4+lmAyKkO/IfiN/sPeSc+4OentE9DhD/tx2esGz8++2E/PpoZ8mIx+F+JxfjmeBq4X5A4Qj01niYviCb2UccxUdT+Vx3omkL4V47XRXFtXcSXRvdPnxfX9vtiE3nHsYmV4kt5x/Gl4pnxpT8RI+yVxwhLTDTcGYF/P87761h9zLjfeax+8iZ87IcuY/U53rcQ7e9bJAYnfsnkp+9bdHNnJjXvMeLa35lpHUDV/t5TOeN+de+Jf/e9J17l7hrnxYfC2N210/Ku767dl6fH3bViGtcg4r66u9Z2Dnm1+4cl99MG0f1DafX6dP+wZ4Ufzdclh5FhtfuHjQXqf+EO6V+/B/wfuMuduI8vGtzHn3/XfXzYB7lsfx//z+dUyOTFWHh0pTQ+CFzs83vWWV6MveAiPSbMC64smRejm9wmx5Va1XGeK85t4jfIbVJgSnaShilLsfbET+U2SV+PqkhhKj8NCNVMfpp+wXX62vlpRLv8NI22/VSOIUEZmfZWrC1IDJQLQ2Nat/qDOBflGDoncgxJnWOIJ3IMNTJRpfJEifw8UfmKs/qwX5NCu0B/M7N5osxMnqhFM1FTkOvL72FiMShJlpfraxhQTtiuc32hjtptrq/8fG1Kj4D01hx18MJ8bWajfG1Geb42jsmvIV/bmxMKPCHP+FSzfG35OfewpgduGgU598T35NwDtonn3NPqeJuce6m8iZhlekWn1h/PmxhVzGqVNzGT+xIUN52fbbvePD335Wati85trEdZGNEm92Ve/lKRn7/U/Kb8pVlTm/rgknq9ef7SvBy0XOegTckX+NV3eIc5aIWTk4PW6DgHbV4eYbBfZG33aACIiq6ITvMIpybReE/eMG2VRzgvFzRWB/IzaDEXtOw4F7TM5oImH3hnuaCx7+l83kDGM/J5i+J83knTE2+Wz1uwwpzsPDcne87odJCTPS++ymGpc0TDnOy/O69+6rEmefV/d22EVJea1kaoVd8isyl0w6VqWebUtxBJU1az+hb/gRolAFGdmfR78TozJtWZSYxCZ3VmBNWZeTh0iurMGLXrzCBUqRUE3cqvFWSYNUogcn2Uzq0VFB2mimsFmVhbrDZE9Z4y/YzVe4J/8uo9Qa+6qvcUqohmWb2nJnGpYc2ujJEnWbPLzK3ZBdC6Zhe3j3FfKtTsSr+ra3ZBcan6UK3uGq7J76y7BnYDQnZysgub6q6ZzequhbXz8nuZqp0nI2WKN62dB5ConWd9d+28KvUPdUlOPNm1r39oJOofWmH9Q4ss2vleqDb1D6MalrlzGKthaZKa/S01LIffWcOySh1SQQGXZLH6pjqkWIO78DDdpg5pWEs2X0rpWrLwj64lG9n3Oqklaz1qyXKqJZtPYZtasol6wCVCUbCPoRb1LeoBy7x6wMMq9YANs3k94Go1nQXWdDZb1nQWeTWd52VhCO1rOvNYXe6yFjBMcmV0X5d7YpWGknRRlzteW73YG4hhYcybRrXVAWrXVgdmj7262948dGYX421fWx02XTsUaGVjBOYphcHC6KgjrqaLrJvAGPwEF3z3iJFQFoXUlaFloRi32wS3LYhPbxCQVBbPCd56xTX9Iz1fP24Q4x+pw8c+7UMlCwOEjGTkaEMXdXOAcSVrBtTgLhU3Sr3sLenoGDBR1ysr4GAbkJq77GHIdUnheNwjXXr6IttQyEOHHWiZZawgIfbH00HZKyHqCzfkgpWOU/GoSl8RYE9uNON+uwv8SvrPP4nEc79M3EB/wOMMoRHvFvJzXT8+HEWsd/X+EDzrpWyuRrN/pqPx57xeREQaeJQA2aQAoOIn2WJIDD0YCbp0Ug8TXheRo3+EzCz1W6N3itxuO70cGjMq+Mqd8IS96uMWQqZtzsI/wDNiPNPmhjbRgmEkJG79Y4HiPMJDxnDcGPqr8FzssNYBpsB+u0/t9/GDEdaywVXGdSgt6IzeWU3gEBzQsxErW0HlAMM3mqnZUU0Zw7MnyLrHyViAeBVPjgJfh8F97kgAtAG6nfYoVPS5B1ekwDsdUE0PWreuZ/wOrFNTS4rcAL9qINXb1tQI3aLnKwQDUJgC1+Fj8/1naLbxxxjd2DaCFqvk9cgxCia2w8wde73wnNrzrptH0NAhkLJNtQKMKpcyeMRjDDbXOLKxOzuQ0Q1CO0dKXeRtayNgpDiIgIURCwA9njaTvevuV5fw0g4unQG4TaRsrmBAjAzYZ53Bw4ZoGPfLCpBNNlG9D+zIwtJB4F3lCrGLbqGbujc+enHa34DAFtzwsm1+3GPcI9sZCBka2MxkSC/997aK32JrA9SCt3qLZst4INS/npzWxVeyAJuEMw3RmTHiYLksCiJQm0AYPbqIFnhk1acfpmA/6D6PDe0No/Um7Q16W97gXqB4XC1tjUlr+ZazWn6msM0265GoGuVRFzHt8qzvBNO7lnbH02RHd2hCTbkjLsVbHBzuyOwmoYA53KeB0yf37VOy2HzDSiiG56aHflytfkahggSuZ17Uf3pSgOdnISi1MHaO7AfSnTwd4Q9gfMELXvCCF7zgBS94wQte8IIXvOAFL3hBl/A/Iocek/tXdVEAAAAASUVORK5CYII=;" vertex="1" parent="1">
          <mxGeometry x="357.5" y="190" width="45" height="45" as="geometry" />
        </mxCell>
        <mxCell id="9bwl6zKxoCdN_GNoM8gN-83" value="" style="shape=mxgraph.signs.people.man_2;html=1;pointerEvents=1;fillColor=#000000;strokeColor=none;verticalLabelPosition=bottom;verticalAlign=top;align=center;" vertex="1" parent="1">
          <mxGeometry x="267" y="516" width="36" height="40" as="geometry" />
        </mxCell>
        <mxCell id="9bwl6zKxoCdN_GNoM8gN-84" value="" style="shape=mxgraph.signs.people.man_2;html=1;pointerEvents=1;fillColor=#000000;strokeColor=none;verticalLabelPosition=bottom;verticalAlign=top;align=center;" vertex="1" parent="1">
          <mxGeometry x="267" y="424" width="36" height="40" as="geometry" />
        </mxCell>
        <mxCell id="eBpNZp-a0hBY9q_X-BA9-1" value="" style="shape=mxgraph.signs.people.man_2;html=1;pointerEvents=1;fillColor=#0000FF;strokeColor=none;verticalLabelPosition=bottom;verticalAlign=top;align=center;" vertex="1" parent="1">
          <mxGeometry x="410" y="378" width="36" height="40" as="geometry" />
        </mxCell>
        <mxCell id="eBpNZp-a0hBY9q_X-BA9-2" value="" style="shape=mxgraph.signs.people.man_2;html=1;pointerEvents=1;fillColor=#0000FF;strokeColor=none;verticalLabelPosition=bottom;verticalAlign=top;align=center;" vertex="1" parent="1">
          <mxGeometry x="410" y="330" width="36" height="40" as="geometry" />
        </mxCell>
      </root>
    </mxGraphModel>
  </diagram>
</mxfile>
